<?xml version="1.0" standalone="no"?>
<!DOCTYPE svg PUBLIC "-//W3C//DTD SVG 20010904//EN"
 "http://www.w3.org/TR/2001/REC-SVG-20010904/DTD/svg10.dtd">
<svg version="1.0" xmlns="http://www.w3.org/2000/svg"
 width="500.000000pt" height="500.000000pt" viewBox="0 0 500.000000 500.000000"
 preserveAspectRatio="xMidYMid meet">

<g transform="translate(0.000000,500.000000) scale(0.100000,-0.100000)"
fill="#000000" stroke="none">
<path d="M903 4541 c-18 -5 -44 -16 -58 -25 -37 -24 -83 -101 -90 -150 -8 -51
7 -139 33 -198 11 -24 52 -126 92 -228 40 -102 93 -234 116 -293 24 -59 44
-114 44 -122 0 -8 -34 -52 -76 -97 -146 -159 -231 -332 -255 -518 -14 -109
-21 -125 -61 -146 -55 -29 -197 -24 -275 9 -83 36 -93 30 -93 -47 0 -141 51
-248 174 -372 74 -73 107 -98 176 -132 47 -23 112 -49 144 -57 33 -8 63 -18
68 -23 12 -12 21 -332 10 -392 -51 -284 -54 -307 -49 -405 14 -289 160 -532
427 -712 116 -78 305 -146 490 -177 74 -13 73 -14 -107 -192 -143 -143 -223
-235 -223 -259 0 -3 44 -5 98 -5 l97 0 130 131 c72 72 150 144 175 161 25 18
66 49 91 70 l47 38 93 0 c97 0 363 25 380 35 5 4 9 3 9 -2 0 -4 -29 -27 -63
-50 -92 -63 -202 -161 -290 -260 -117 -132 -118 -123 14 -123 l112 0 72 67
c161 152 364 303 483 360 42 20 50 38 27 63 -20 22 -13 40 16 40 32 0 257 113
351 176 99 67 276 218 328 281 38 45 50 52 50 28 0 -15 28 -102 88 -275 16
-47 42 -110 57 -140 37 -73 131 -212 189 -280 46 -53 131 -208 155 -283 l13
-37 99 0 99 0 -19 38 c-10 20 -21 48 -22 62 l-4 25 100 -3 c182 -6 298 33 402
137 61 61 76 86 109 185 28 80 30 109 10 125 -11 10 -26 6 -68 -15 -40 -20
-68 -27 -118 -28 -112 -1 -178 48 -268 197 -60 100 -64 124 -24 132 15 3 73
28 130 56 233 115 354 304 369 576 6 105 4 119 -22 198 -20 62 -36 92 -57 110
-16 14 -33 25 -38 25 -16 0 -28 -26 -32 -72 -6 -51 -42 -109 -80 -129 -32 -17
-109 -15 -146 5 -47 25 -88 95 -102 174 -9 54 -8 91 5 185 20 154 20 335 0
412 -19 71 -55 152 -96 216 -28 45 -37 79 -21 79 5 0 37 18 71 40 95 62 167
188 133 235 -4 6 -52 10 -112 10 -88 0 -113 4 -153 22 -68 31 -121 76 -165
138 -265 377 -437 506 -754 566 -32 6 -58 14 -58 18 0 4 -31 55 -69 113 -90
136 -269 320 -361 371 -141 77 -225 72 -314 -19 -29 -29 -67 -80 -85 -113 -30
-56 -40 -66 -65 -62 -5 1 -32 7 -60 12 -127 25 -313 0 -436 -60 -30 -14 -82
-52 -116 -83 -34 -32 -68 -58 -77 -58 -8 0 -22 12 -32 26 -9 15 -58 74 -109
133 -51 58 -141 165 -201 236 -241 287 -276 318 -375 329 -25 2 -60 1 -77 -3z
m136 -233 c28 -35 50 -72 51 -83 0 -11 -15 -52 -33 -90 l-33 -69 -47 117 c-26
64 -47 123 -47 130 0 20 30 57 45 57 8 0 37 -28 64 -62z m256 -293 c66 -78 67
-80 62 -128 -5 -55 -71 -193 -117 -247 -36 -42 -31 -47 -102 113 l-47 109 38
51 c43 58 75 117 85 161 4 15 8 27 10 25 2 -2 34 -40 71 -84z m1483 18 c101
-60 198 -173 307 -358 118 -200 164 -419 139 -658 -30 -272 -29 -262 -3 -281
23 -16 25 -16 53 16 37 43 69 113 99 215 l23 83 72 -123 c199 -340 266 -627
241 -1035 -10 -176 -25 -261 -65 -380 -77 -232 -285 -503 -470 -617 -288 -176
-466 -243 -744 -280 -190 -26 -530 -16 -695 20 -232 50 -352 107 -517 242
-125 103 -174 182 -213 345 -34 141 -32 176 21 463 13 73 15 125 10 273 l-6
182 88 0 c227 0 493 61 687 158 230 115 334 200 476 389 62 81 153 254 164
311 8 38 13 39 49 11 15 -12 29 -19 32 -17 2 3 -5 63 -16 134 -55 356 9 799
132 910 23 21 43 32 63 33 6 1 39 -16 73 -36z m-434 -164 c4 -3 -1 -37 -10
-75 -27 -120 -36 -203 -43 -444 -7 -225 -8 -238 -35 -310 -44 -116 -80 -181
-145 -261 -78 -97 -129 -145 -226 -214 -118 -84 -149 -100 -275 -144 -171 -59
-260 -79 -417 -91 -230 -19 -408 14 -544 101 -63 40 -139 106 -139 120 0 4 26
10 57 14 84 9 181 40 235 74 51 33 52 35 78 220 15 112 61 236 120 324 54 80
94 127 108 127 6 0 33 -57 61 -127 74 -182 115 -261 165 -317 40 -46 45 -48
79 -42 49 9 177 105 258 194 71 79 140 195 194 330 35 87 42 120 27 138 -5 5
-23 50 -41 101 -30 86 -31 93 -16 116 34 52 171 133 275 163 44 13 222 15 234
3z m-731 -235 c83 -100 146 -196 147 -221 1 -81 -123 -264 -243 -360 -77 -61
-75 -62 -116 58 -16 46 -48 125 -70 174 -22 50 -41 95 -41 102 0 6 18 31 40
55 44 48 134 220 151 288 l11 45 31 -36 c18 -20 58 -67 90 -105z m1816 -114
c62 -19 158 -71 218 -116 39 -30 199 -215 268 -310 92 -129 205 -234 273 -254
44 -13 -67 -12 -151 2 -86 14 -243 90 -339 164 -125 97 -283 236 -285 253 -18
123 -39 218 -58 264 -9 22 -1 21 74 -3z m566 -876 c79 -27 145 -64 177 -100 9
-11 32 -50 52 -89 43 -87 59 -192 45 -310 -17 -149 -22 -338 -10 -393 27 -127
116 -249 219 -299 46 -23 69 -28 122 -27 36 1 84 9 108 17 52 18 53 13 15 -81
-35 -90 -78 -155 -150 -227 -83 -84 -148 -117 -239 -123 -112 -7 -173 26 -325
174 -65 65 -119 110 -119 102 0 -8 17 -48 37 -89 27 -54 59 -96 122 -159 79
-79 88 -92 126 -186 65 -161 120 -248 213 -341 87 -87 146 -127 215 -148 l42
-12 -64 -32 c-141 -72 -294 -58 -419 37 -44 34 -159 188 -210 282 -84 155
-169 428 -188 606 -6 57 -3 70 34 160 50 124 58 152 82 294 30 173 35 375 16
559 -14 133 -24 177 -68 310 -28 86 -53 162 -56 170 -3 7 28 -5 69 -27 41 -22
110 -53 154 -68z"/>
<path d="M2350 1948 c-54 -14 -112 -59 -144 -112 -26 -41 -30 -60 -34 -137 -6
-113 11 -160 77 -222 49 -46 123 -77 181 -77 84 0 188 64 236 146 36 61 43
151 19 225 -25 74 -111 161 -177 177 -54 14 -108 14 -158 0z m-4 -133 c34 -23
48 -68 32 -101 -23 -48 -113 -54 -143 -10 -50 71 40 162 111 111z"/>
<path d="M1173 1904 c-46 -20 -80 -70 -94 -142 -40 -192 99 -330 251 -249 64
34 85 80 85 187 0 72 -4 92 -25 130 -44 78 -136 110 -217 74z m35 -97 c6 -5
12 -27 12 -48 0 -72 -81 -91 -111 -26 -28 62 44 116 99 74z"/>
<path d="M1358 1326 c-9 -20 -7 -35 11 -79 27 -66 54 -97 84 -97 66 0 60 92
-11 168 -36 39 -68 42 -84 8z"/>
<path d="M1872 1329 c-38 -25 -82 -95 -82 -130 1 -87 98 -59 151 43 23 45 24
71 3 92 -20 21 -32 20 -72 -5z"/>
<path d="M3579 3157 c14 -18 51 -42 51 -33 0 3 -15 15 -32 27 -24 17 -29 18
-19 6z"/>
<path d="M3837 2959 c7 -7 15 -10 18 -7 3 3 -2 9 -12 12 -14 6 -15 5 -6 -5z"/>
</g>
</svg>
